<svg xmlns="http://www.w3.org/2000/svg" viewBox="0 0 841.9 595.3">
<symbol id="airplane" viewBox="0 0 512 512">
<path d="M407.72 224c-3.4 0-14.79.1-18 .3l-64.9 1.7a1.83 1.83 0 01-1.69-.9L193.55 67.56a9 9 0 00-6.66-3.56H160l73 161a2.35 2.35 0 01-2.26 3.35l-121.69 1.8a8.06 8.06 0 01-6.6-3.1l-37-45c-3-3.9-8.62-6-13.51-6H33.08c-1.29 0-1.1 1.21-.75 2.43l19.84 71.42a16.3 16.3 0 010 11.9L32.31 333c-.59 1.95-.52 3 1.77 3H52c8.14 0 9.25-1.06 13.41-6.3l37.7-45.7a8.19 8.19 0 016.6-3.1l120.68 2.7a2.7 2.7 0 012.43 3.74L160 448h26.64a9 9 0 006.65-3.55L323.14 287c.39-.6 2-.9 2.69-.9l63.9 1.7c3.3.2 14.59.3 18 .3C452 288.1 480 275.93 480 256s-27.88-32-72.28-32z" fill="none" stroke-linecap="round" stroke-linejoin="round" stroke-width="20"/>
</symbol>
<symbol id="bag" viewBox="0 0 512 512">
<path d="M80 176a16 16 0 00-16 16v216c0 30.24 25.76 56 56 56h272c30.24 0 56-24.51 56-54.75V192a16 16 0 00-16-16zM160 176v-32a96 96 0 0196-96h0a96 96 0 0196 96v32" fill="none" stroke-linecap="round" stroke-linejoin="round" stroke-width="20"/><path d="M160 224v16a96 96 0 0096 96h0a96 96 0 0096-96v-16" fill="none" stroke-linecap="round" stroke-linejoin="round" stroke-width="20"/>
</symbol>
<symbol id="basketball" viewBox="0 0 512 512">
<circle cx="256" cy="256" r="192" fill="none" stroke-linecap="round" stroke-linejoin="round" stroke-width="20"/><path d="M432.94 255.05a192 192 0 01-176.31-180.7M255 433.61A192 192 0 0074.29 256.69M120.24 120.24l271.52 271.52M120.24 391.76l271.52-271.52" fill="none" stroke-linecap="round" stroke-linejoin="round" stroke-width="20"/></symbol><symbol id="business" viewBox="0 0 512 512"><path fill="none" stroke-linecap="round" stroke-linejoin="round" stroke-width="20" d="M176 416v64M80 32h192a32 32 0 0132 32v412a4 4 0 01-4 4H48h0V64a32 32 0 0132-32zM320 192h112a32 32 0 0132 32v256h0-160 0V208a16 16 0 0116-16z"/><path d="M98.08 431.87a16 16 0 1113.79-13.79 16 16 0 01-13.79 13.79zM98.08 351.87a16 16 0 1113.79-13.79 16 16 0 01-13.79 13.79zM98.08 271.87a16 16 0 1113.79-13.79 16 16 0 01-13.79 13.79zM98.08 191.87a16 16 0 1113.79-13.79 16 16 0 01-13.79 13.79zM98.08 111.87a16 16 0 1113.79-13.79 16 16 0 01-13.79 13.79zM178.08 351.87a16 16 0 1113.79-13.79 16 16 0 01-13.79 13.79zM178.08 271.87a16 16 0 1113.79-13.79 16 16 0 01-13.79 13.79zM178.08 191.87a16 16 0 1113.79-13.79 16 16 0 01-13.79 13.79zM178.08 111.87a16 16 0 1113.79-13.79 16 16 0 01-13.79 13.79zM258.08 431.87a16 16 0 1113.79-13.79 16 16 0 01-13.79 13.79zM258.08 351.87a16 16 0 1113.79-13.79 16 16 0 01-13.79 13.79zM258.08 271.87a16 16 0 1113.79-13.79 16 16 0 01-13.79 13.79z"/><ellipse cx="256" cy="176" rx="15.95" ry="16.03" transform="rotate(-45 255.99 175.996)"/><path d="M258.08 111.87a16 16 0 1113.79-13.79 16 16 0 01-13.79 13.79zM400 400a16 16 0 1016 16 16 16 0 00-16-16zM400 320a16 16 0 1016 16 16 16 0 00-16-16zM400 240a16 16 0 1016 16 16 16 0 00-16-16zM336 400a16 16 0 1016 16 16 16 0 00-16-16zM336 320a16 16 0 1016 16 16 16 0 00-16-16zM336 240a16 16 0 1016 16 16 16 0 00-16-16z"/></symbol><symbol id="cafe" viewBox="0 0 512 512"><path d="M368 80h64a16 16 0 0116 16v34a46 46 0 01-46 46h-34M96 80h272v192a80 80 0 01-80 80H176a80 80 0 01-80-80V80h0zM64 416h336" fill="none" stroke-linecap="round" stroke-linejoin="round" stroke-width="20"/></symbol><symbol id="cafe" viewBox="0 0 512 512"><path d="M451 374c-15.88-16-54.34-39.35-73-48.76-24.3-12.24-26.3-13.24-45.4.95-12.74 9.47-21.21 17.93-36.12 14.75s-47.31-21.11-75.68-49.39-47.34-61.62-50.53-76.48 5.41-23.23 14.79-36c13.22-18 12.22-21 .92-45.3-8.81-18.9-32.84-57-48.9-72.8C119.9 44 119.9 47 108.83 51.6A160.15 160.15 0 0083 65.37C67 76 58.12 84.83 51.91 98.1s-9 44.38 23.07 102.64 54.57 88.05 101.14 134.49S258.5 406.64 310.85 436c64.76 36.27 89.6 29.2 102.91 23s22.18-15 32.83-31a159.09 159.09 0 0013.8-25.8C465 391.17 468 391.17 451 374z" fill="none" stroke-miterlimit="10" stroke-width="20"/></symbol><symbol id="subway" viewBox="0 0 512 512"><rect x="112" y="32" width="288" height="352" rx="48" ry="48" fill="none" stroke-miterlimit="10" stroke-width="20"/><path fill="none" stroke-linecap="round" stroke-linejoin="round" stroke-width="20" d="M208 80h96"/><rect x="112" y="128" width="288" height="96" rx="32" ry="32" fill="none" stroke-linecap="round" stroke-linejoin="round" stroke-width="20"/><circle cx="176" cy="320" r="16" fill="none" stroke-linejoin="round" stroke-width="20"/><circle cx="336" cy="320" r="16" fill="none" stroke-linejoin="round" stroke-width="20"/><path fill="none" stroke-linecap="round" stroke-linejoin="round" stroke-width="20" d="M144 464h224M336 432l48 48M176 432l-48 48"/></symbol><symbol id="cart" viewBox="0 0 512 512"><circle cx="176" cy="416" r="16" fill="none" stroke-linecap="round" stroke-linejoin="round" stroke-width="20"/><circle cx="400" cy="416" r="16" fill="none" stroke-linecap="round" stroke-linejoin="round" stroke-width="20"/><path fill="none" stroke-linecap="round" stroke-linejoin="round" stroke-width="20" d="M48 80h64l48 272h256"/><path d="M160 288h249.44a8 8 0 007.85-6.43l28.8-144a8 8 0 00-7.85-9.57H128" fill="none" stroke-linecap="round" stroke-linejoin="round" stroke-width="20"/></symbol><symbol id="pricetags" viewBox="0 0 512 512"><path d="M403.29 32H280.36a14.46 14.46 0 00-10.2 4.2L24.4 281.9a28.85 28.85 0 000 40.7l117 117a28.86 28.86 0 0040.71 0L427.8 194a14.46 14.46 0 004.2-10.2v-123A28.66 28.66 0 00403.29 32z" fill="none" stroke-linecap="round" stroke-linejoin="round" stroke-width="20"/><path d="M352 144a32 32 0 1132-32 32 32 0 01-32 32z"/><path d="M230 480l262-262a13.81 13.81 0 004-10V80" fill="none" stroke-linecap="round" stroke-linejoin="round" stroke-width="20"/></symbol><symbol id="game" viewBox="0 0 512 512"><path d="M467.51 248.83c-18.4-83.18-45.69-136.24-89.43-149.17A91.5 91.5 0 00352 96c-26.89 0-48.11 16-96 16s-69.15-16-96-16a99.09 99.09 0 00-27.2 3.66C89 112.59 61.94 165.7 43.33 248.83c-19 84.91-15.56 152 21.58 164.88 26 9 49.25-9.61 71.27-37 25-31.2 55.79-40.8 119.82-40.8s93.62 9.6 118.66 40.8c22 27.41 46.11 45.79 71.42 37.16 41.02-14.01 40.44-79.13 21.43-165.04z" fill="none" stroke-miterlimit="10" stroke-width="20"/><circle cx="292" cy="224" r="20"/><path d="M336 288a20 20 0 1120-19.95A20 20 0 01336 288z"/><circle cx="336" cy="180" r="20"/><circle cx="380" cy="224" r="20"/><path fill="none" stroke-linecap="round" stroke-linejoin="round" stroke-width="20" d="M160 176v96M208 224h-96"/></symbol><symbol id="desktop" viewBox="0 0 512 512"><rect x="32" y="64" width="448" height="320" rx="32" ry="32" fill="none" stroke-linejoin="round" stroke-width="20"/><path stroke-linecap="round" stroke-linejoin="round" stroke-width="20" d="M304 448l-8-64h-80l-8 64h96z"/><path fill="none" stroke-linecap="round" stroke-linejoin="round" stroke-width="20" d="M368 448H144"/><path d="M32 304v48a32.09 32.09 0 0032 32h384a32.09 32.09 0 0032-32v-48zm224 64a16 16 0 1116-16 16 16 0 01-16 16z"/></symbol><symbol id="card" viewBox="0 0 512 512"><rect x="48" y="96" width="416" height="320" rx="56" ry="56" fill="none" stroke-linecap="round" stroke-linejoin="round" stroke-width="20"/><path fill="none" stroke-linejoin="round" stroke-width="60" d="M48 192h416M128 300h48v20h-48z"/></symbol><symbol id="storefront" viewBox="0 0 512 512"><path fill="none" stroke-linecap="round" stroke-linejoin="round" stroke-width="20" d="M448 448V240M64 240v208M382.47 48H129.53c-21.79 0-41.47 12-49.93 30.46L36.3 173c-14.58 31.81 9.63 67.85 47.19 69h2c31.4 0 56.85-25.18 56.85-52.23 0 27 25.46 52.23 56.86 52.23s56.8-23.38 56.8-52.23c0 27 25.45 52.23 56.85 52.23s56.86-23.38 56.86-52.23c0 28.85 25.45 52.23 56.85 52.23h1.95c37.56-1.17 61.77-37.21 47.19-69l-43.3-94.54C423.94 60 404.26 48 382.47 48zM32 464h448M136 288h80a24 24 0 0124 24v88h0-128 0v-88a24 24 0 0124-24zM288 464V312a24 24 0 0124-24h64a24 24 0 0124 24v152"/></symbol><symbol id="trophy" viewBox="0 0 512 512"><path fill="none" stroke-linecap="round" stroke-linejoin="round" stroke-width="20" d="M176 464h160M256 464V336M384 224c0-50.64-.08-134.63-.12-160a16 16 0 00-16-16l-223.79.26a16 16 0 00-16 15.95c0 30.58-.13 129.17-.13 159.79 0 64.28 83 112 128 112S384 288.28 384 224z"/><path d="M128 96H48v16c0 55.22 33.55 112 80 112M384 96h80v16c0 55.22-33.55 112-80 112" fill="none" stroke-linecap="round" stroke-linejoin="round" stroke-width="20"/></symbol><symbol id="fast-food" viewBox="0 0 512 512"><path d="M322 416c0 35.35-20.65 64-56 64H134c-35.35 0-56-28.65-56-64M336 336c17.67 0 32 17.91 32 40h0c0 22.09-14.33 40-32 40H64c-17.67 0-32-17.91-32-40h0c0-22.09 14.33-40 32-40" fill="none" stroke-linecap="round" stroke-miterlimit="10" stroke-width="20"/><path d="M344 336H179.31a8 8 0 00-5.65 2.34l-26.83 26.83a4 4 0 01-5.66 0l-26.83-26.83a8 8 0 00-5.65-2.34H56a24 24 0 01-24-24h0a24 24 0 0124-24h288a24 24 0 0124 24h0a24 24 0 01-24 24zM64 276v-.22c0-55 45-83.78 100-83.78h72c55 0 100 29 100 84v-.22M241 112l7.44 63.97" fill="none" stroke-linecap="round" stroke-miterlimit="10" stroke-width="20"/><path d="M256 480h139.31a32 32 0 0031.91-29.61L463 112" fill="none" stroke-linecap="round" stroke-miterlimit="10" stroke-width="20"/><path fill="none" stroke-linecap="round" stroke-linejoin="round" stroke-width="20" d="M368 112l16-64 47-16"/><path fill="none" stroke-linecap="round" stroke-miterlimit="10" stroke-width="20" d="M224 112h256"/></symbol><symbol id="cut" viewBox="0 0 512 512"><circle cx="104" cy="152" r="56" fill="none" stroke-linecap="round" stroke-linejoin="round" stroke-width="20"/><circle cx="104" cy="360" r="56" fill="none" stroke-linecap="round" stroke-linejoin="round" stroke-width="20"/><path d="M157 175l-11 15 37 15s3.46-6.42 7-10z" fill="none" stroke-linecap="square" stroke-miterlimit="10" stroke-width="20"/><path d="M154.17 334.43L460 162c-2.5-6.7-28-12-64-4-29.12 6.47-121.16 29.05-159.16 56.05C205.85 236.06 227 272 192 298c-25.61 19-44.43 22.82-44.43 22.82zM344.47 278.24L295 306.67c14.23 6.74 65.54 33.27 117 36.33 14.92.89 30 .39 39-6z" fill="none" stroke-linecap="round" stroke-miterlimit="10" stroke-width="20"/><circle cx="256" cy="240" r="32" fill="none" stroke-miterlimit="10" stroke-width="20"/></symbol><symbol id="construct" viewBox="0 0 512 512"><path d="M436.67 184.11a27.17 27.17 0 01-38.3 0l-22.48-22.49a27.15 27.15 0 010-38.29l50.89-50.89a.85.85 0 00-.26-1.38C393.68 57 351.09 64.15 324.05 91c-25.88 25.69-27.35 64.27-17.87 98a27 27 0 01-7.67 27.14l-173 160.76a40.76 40.76 0 1057.57 57.54l162.15-173.3a27 27 0 0126.77-7.7c33.46 8.94 71.49 7.26 97.07-17.94 27.49-27.08 33.42-74.94 20.1-102.33a.85.85 0 00-1.36-.22z" fill="none" stroke-linecap="round" stroke-miterlimit="10" stroke-width="20"/><path d="M224 284c-17.48-17-25.49-24.91-31-30.29a18.24 18.24 0 01-3.33-21.35 20.76 20.76 0 013.5-4.62l15.68-15.29a18.66 18.66 0 015.63-3.87 18.11 18.11 0 0120 3.62c5.45 5.29 15.43 15 33.41 32.52M317.07 291.3c40.95 38.1 90.62 83.27 110 99.41a13.46 13.46 0 01.94 19.92L394.63 444a14 14 0 01-20.29-.76c-16.53-19.18-61.09-67.11-99.27-107" fill="none" stroke-linecap="round" stroke-linejoin="round" stroke-width="20"/><path d="M17.34 193.5l29.41-28.74a4.71 4.71 0 013.41-1.35 4.85 4.85 0 013.41 1.35h0a9.86 9.86 0 008.19 2.77c3.83-.42 7.92-1.6 10.57-4.12 6-5.8-.94-17.23 4.34-24.54a207 207 0 0119.78-22.6c6-5.88 29.84-28.32 69.9-44.45A107.31 107.31 0 01206.67 64c22.59 0 40 10 46.26 15.67a89.54 89.54 0 0110.28 11.64 78.92 78.92 0 00-9.21-2.77 68.82 68.82 0 00-20-1.26c-13.33 1.09-29.41 7.26-38 14-13.9 11-19.87 25.72-20.81 44.71-.68 14.12 2.72 22.1 36.1 55.49a6.6 6.6 0 01-.34 9.16l-18.22 18a6.88 6.88 0 01-9.54.09c-21.94-21.94-36.65-33.09-45-38.16s-15.07-6.5-18.3-6.85a30.85 30.85 0 00-18.27 3.87 11.39 11.39 0 00-2.64 2 14.14 14.14 0 00.42 20.08l1.71 1.6a4.63 4.63 0 010 6.64L71.73 246.6a4.71 4.71 0 01-3.41 1.4 4.86 4.86 0 01-3.41-1.35l-47.57-46.43a4.88 4.88 0 010-6.72z" fill="none" stroke-linecap="round" stroke-linejoin="round" stroke-width="20"/></symbol><symbol id="library" viewBox="0 0 512 512"><rect x="32" y="96" width="64" height="368" rx="16" ry="16" fill="none" stroke-linejoin="round" stroke-width="20"/><path fill="none" stroke-linecap="round" stroke-linejoin="round" stroke-width="20" d="M112 224h128M112 400h128"/><rect x="112" y="160" width="128" height="304" rx="16" ry="16" fill="none" stroke-linejoin="round" stroke-width="20"/><rect x="256" y="48" width="96" height="416" rx="16" ry="16" fill="none" stroke-linejoin="round" stroke-width="20"/><path d="M422.46 96.11l-40.4 4.25c-11.12 1.17-19.18 11.57-17.93 23.1l34.92 321.59c1.26 11.53 11.37 20 22.49 18.84l40.4-4.25c11.12-1.17 19.18-11.57 17.93-23.1L445 115c-1.31-11.58-11.42-20.06-22.54-18.89z" fill="none" stroke-linejoin="round" stroke-width="20"/></symbol><symbol id="home" viewBox="0 0 512 512"><path d="M80 212v236a16 16 0 0016 16h96V328a24 24 0 0124-24h80a24 24 0 0124 24v136h96a16 16 0 0016-16V212" fill="none" stroke-linecap="round" stroke-linejoin="round" stroke-width="20"/><path d="M480 256L266.89 52c-5-5.28-16.69-5.34-21.78 0L32 256M400 179V64h-48v69" fill="none" stroke-linecap="round" stroke-linejoin="round" stroke-width="20"/></symbol><symbol id="ticket" viewBox="0 0 512 512"><path fill="none" stroke-miterlimit="10" stroke-width="20" d="M366.05 146a46.7 46.7 0 01-2.42-63.42 3.87 3.87 0 00-.22-5.26l-44.13-44.18a3.89 3.89 0 00-5.5 0l-70.34 70.34a23.62 23.62 0 00-5.71 9.24h0a23.66 23.66 0 01-14.95 15h0a23.7 23.7 0 00-9.25 5.71L33.14 313.78a3.89 3.89 0 000 5.5l44.13 44.13a3.87 3.87 0 005.26.22 46.69 46.69 0 0165.84 65.84 3.87 3.87 0 00.22 5.26l44.13 44.13a3.89 3.89 0 005.5 0l180.4-180.39a23.7 23.7 0 005.71-9.25h0a23.66 23.66 0 0114.95-15h0a23.62 23.62 0 009.24-5.71l70.34-70.34a3.89 3.89 0 000-5.5l-44.13-44.13a3.87 3.87 0 00-5.26-.22 46.7 46.7 0 01-63.42-2.32z"/><path fill="none" stroke-miterlimit="10" stroke-width="20" stroke-linecap="round" d="M250.5 140.44l-16.51-16.51M294.52 184.46l-11.01-11M338.54 228.49l-11-11.01M388.07 278.01l-16.51-16.51"/></symbol></svg>