<svg width="40" height="40" viewBox="0 0 40 40" fill="none" xmlns="http://www.w3.org/2000/svg">
<path d="M13.12 22.4925C13.6163 22.4925 14.0922 22.2954 14.4432 21.9444C14.7941 21.5935 14.9913 21.1175 14.9913 20.6212C14.9913 20.125 14.7941 19.649 14.4432 19.2981C14.0922 18.9471 13.6163 18.75 13.12 18.75C12.6237 18.75 12.1478 18.9471 11.7968 19.2981C11.4459 19.649 11.2487 20.125 11.2487 20.6212C11.2487 21.1175 11.4459 21.5935 11.7968 21.9444C12.1478 22.2954 12.6237 22.4925 13.12 22.4925V22.4925ZM14.9925 26.8725C14.9925 27.3688 14.7954 27.8447 14.4444 28.1957C14.0935 28.5466 13.6175 28.7438 13.1212 28.7438C12.625 28.7438 12.149 28.5466 11.7981 28.1957C11.4471 27.8447 11.25 27.3688 11.25 26.8725C11.25 26.3762 11.4471 25.9003 11.7981 25.5493C12.149 25.1984 12.625 25.0012 13.1212 25.0012C13.6175 25.0012 14.0935 25.1984 14.4444 25.5493C14.7954 25.9003 14.9925 26.3762 14.9925 26.8725ZM20 22.49C20.496 22.49 20.9716 22.293 21.3223 21.9423C21.673 21.5916 21.87 21.116 21.87 20.62C21.87 20.124 21.673 19.6484 21.3223 19.2977C20.9716 18.947 20.496 18.75 20 18.75C19.5037 18.75 19.0278 18.9471 18.6768 19.2981C18.3259 19.649 18.1288 20.125 18.1288 20.6212C18.1288 21.1175 18.3259 21.5935 18.6768 21.9444C19.0278 22.2954 19.5037 22.4925 20 22.4925V22.49ZM21.8725 26.87C21.8725 27.3663 21.6754 27.8422 21.3244 28.1932C20.9735 28.5441 20.4975 28.7413 20.0012 28.7413C19.505 28.7413 19.029 28.5441 18.6781 28.1932C18.3271 27.8422 18.13 27.3663 18.13 26.87C18.13 26.3737 18.3271 25.8978 18.6781 25.5468C19.029 25.1959 19.505 24.9988 20.0012 24.9988C20.4975 24.9988 20.9735 25.1959 21.3244 25.5468C21.6754 25.8978 21.8725 26.3737 21.8725 26.87ZM26.8725 22.49C27.3688 22.49 27.8447 22.2929 28.1957 21.9419C28.5466 21.591 28.7438 21.115 28.7438 20.6188C28.7438 20.1225 28.5466 19.6465 28.1957 19.2956C27.8447 18.9446 27.3688 18.7475 26.8725 18.7475C26.3762 18.7475 25.9003 18.9446 25.5493 19.2956C25.1984 19.6465 25.0012 20.1225 25.0012 20.6188C25.0012 21.115 25.1984 21.591 25.5493 21.9419C25.9003 22.2929 26.3762 22.49 26.8725 22.49ZM35 11.25C35 9.5924 34.3415 8.00269 33.1694 6.83058C31.9973 5.65848 30.4076 5 28.75 5H11.25C9.5924 5 8.00269 5.65848 6.83058 6.83058C5.65848 8.00269 5 9.5924 5 11.25V28.75C5 30.4076 5.65848 31.9973 6.83058 33.1694C8.00269 34.3415 9.5924 35 11.25 35H28.75C30.4076 35 31.9973 34.3415 33.1694 33.1694C34.3415 31.9973 35 30.4076 35 28.75V11.25ZM7.5 15H32.5V28.75C32.5 29.7446 32.1049 30.6984 31.4017 31.4017C30.6984 32.1049 29.7446 32.5 28.75 32.5H11.25C10.2554 32.5 9.30161 32.1049 8.59835 31.4017C7.89509 30.6984 7.5 29.7446 7.5 28.75V15ZM11.25 7.5H28.75C29.7446 7.5 30.6984 7.89509 31.4017 8.59835C32.1049 9.30161 32.5 10.2554 32.5 11.25V12.5H7.5V11.25C7.5 10.2554 7.89509 9.30161 8.59835 8.59835C9.30161 7.89509 10.2554 7.5 11.25 7.5V7.5Z" fill="black"/>
</svg>
