<svg width="35" height="35" viewBox="0 0 35 35" fill="none" xmlns="http://www.w3.org/2000/svg">
<path d="M2.1875 24.0625C2.1875 23.4823 2.41797 22.9259 2.8282 22.5157C3.23844 22.1055 3.79484 21.875 4.375 21.875H8.75C9.33016 21.875 9.88656 22.1055 10.2968 22.5157C10.707 22.9259 10.9375 23.4823 10.9375 24.0625V30.625C10.9375 31.2052 10.707 31.7616 10.2968 32.1718C9.88656 32.582 9.33016 32.8125 8.75 32.8125H4.375C3.79484 32.8125 3.23844 32.582 2.8282 32.1718C2.41797 31.7616 2.1875 31.2052 2.1875 30.625V24.0625ZM13.125 15.3125C13.125 14.7323 13.3555 14.1759 13.7657 13.7657C14.1759 13.3555 14.7323 13.125 15.3125 13.125H19.6875C20.2677 13.125 20.8241 13.3555 21.2343 13.7657C21.6445 14.1759 21.875 14.7323 21.875 15.3125V30.625C21.875 31.2052 21.6445 31.7616 21.2343 32.1718C20.8241 32.582 20.2677 32.8125 19.6875 32.8125H15.3125C14.7323 32.8125 14.1759 32.582 13.7657 32.1718C13.3555 31.7616 13.125 31.2052 13.125 30.625V15.3125ZM24.0625 4.375C24.0625 3.79484 24.293 3.23844 24.7032 2.8282C25.1134 2.41797 25.6698 2.1875 26.25 2.1875H30.625C31.2052 2.1875 31.7616 2.41797 32.1718 2.8282C32.582 3.23844 32.8125 3.79484 32.8125 4.375V30.625C32.8125 31.2052 32.582 31.7616 32.1718 32.1718C31.7616 32.582 31.2052 32.8125 30.625 32.8125H26.25C25.6698 32.8125 25.1134 32.582 24.7032 32.1718C24.293 31.7616 24.0625 31.2052 24.0625 30.625V4.375Z" fill="white" fill-opacity="0.5"/>
</svg>
