<svg width="19" height="18" viewBox="0 0 19 18" fill="none" xmlns="http://www.w3.org/2000/svg">
<path d="M12.168 15.056C14.056 15.056 15.64 14.384 16.92 13.04L18.456 14.552C17.704 15.416 16.776 16.072 15.672 16.52C14.568 16.968 13.36 17.192 12.048 17.192C10.656 17.192 9.368 16.936 8.184 16.424C7 15.896 6 15.16 5.184 14.216C4.368 13.272 3.792 12.176 3.456 10.928H0.72V9.584H3.216C3.184 9.168 3.168 8.84 3.168 8.6C3.168 8.36 3.184 8.032 3.216 7.616H0.72V6.272H3.456C3.792 5.024 4.368 3.928 5.184 2.984C6 2.04 7 1.312 8.184 0.8C9.368 0.272 10.656 0.0079999 12.048 0.0079999C13.376 0.0079999 14.584 0.232 15.672 0.68C16.776 1.128 17.704 1.776 18.456 2.624L16.92 4.136C15.656 2.808 14.072 2.144 12.168 2.144C10.712 2.144 9.432 2.52 8.328 3.272C7.224 4.024 6.448 5.024 6 6.272H13.608V7.616H5.664C5.616 7.92 5.592 8.248 5.592 8.6C5.592 8.936 5.616 9.264 5.664 9.584H13.608V10.928H6C6.448 12.176 7.224 13.176 8.328 13.928C9.432 14.68 10.712 15.056 12.168 15.056Z" fill="white"/>
</svg>
