<svg width="33" height="33" viewBox="0 0 33 33" fill="none" xmlns="http://www.w3.org/2000/svg">
<path d="M11.9762 19.6488C11.7827 19.4583 11.5372 19.3292 11.2705 19.2779C11.0039 19.2265 10.728 19.2551 10.4775 19.36C10.3069 19.4218 10.1519 19.5203 10.0236 19.6486C9.89528 19.7769 9.79675 19.9319 9.735 20.1025C9.64592 20.3116 9.61007 20.5395 9.63065 20.7659C9.65122 20.9922 9.72759 21.2099 9.85292 21.3996C9.97824 21.5892 10.1486 21.7448 10.3488 21.8524C10.549 21.96 10.7727 22.0164 11 22.0164C11.2273 22.0164 11.451 21.96 11.6512 21.8524C11.8514 21.7448 12.0218 21.5892 12.1471 21.3996C12.2724 21.2099 12.3488 20.9922 12.3694 20.7659C12.3899 20.5395 12.3541 20.3116 12.265 20.1025C12.1954 19.9358 12.0978 19.7824 11.9762 19.6488ZM22.9762 19.6488C22.7103 19.4034 22.3618 19.2672 22 19.2672C21.6382 19.2672 21.2897 19.4034 21.0238 19.6488C20.9022 19.7824 20.8046 19.9358 20.735 20.1025C20.6278 20.3526 20.5981 20.629 20.6496 20.8962C20.701 21.1633 20.8314 21.4089 21.0238 21.6012C21.1574 21.7228 21.3108 21.8204 21.4775 21.89C21.6421 21.9627 21.8201 22.0002 22 22.0002C22.1799 22.0002 22.3579 21.9627 22.5225 21.89C22.689 21.8201 22.8424 21.7225 22.9762 21.6012C23.1686 21.4089 23.299 21.1633 23.3504 20.8962C23.4019 20.629 23.3722 20.3526 23.265 20.1025C23.1954 19.9358 23.0978 19.7824 22.9762 19.6488ZM26.5512 25.9806C27.5246 25.2047 28.2675 24.1777 28.6998 23.0104C29.1321 21.8431 29.2374 20.58 29.0042 19.3573L26.9417 8.35725C26.6461 6.78138 25.8089 5.35841 24.5751 4.33449C23.3413 3.31056 21.7884 2.75008 20.185 2.75H12.8136C11.2105 2.7504 9.65792 3.31103 8.42437 4.33493C7.19082 5.35883 6.35387 6.78162 6.05825 8.35725L3.99575 19.3573C3.76279 20.5801 3.86829 21.8434 4.30084 23.0106C4.73338 24.1779 5.47656 25.2049 6.45012 25.9806L4.52787 27.9029C4.39655 28.0297 4.2918 28.1814 4.21974 28.3492C4.14767 28.5169 4.10974 28.6974 4.10816 28.8799C4.10657 29.0625 4.14136 29.2436 4.21049 29.4126C4.27963 29.5815 4.38173 29.7351 4.51083 29.8642C4.63993 29.9933 4.79346 30.0954 4.96244 30.1645C5.13142 30.2336 5.31248 30.2684 5.49505 30.2668C5.67762 30.2653 5.85805 30.2273 6.02581 30.1553C6.19356 30.0832 6.34528 29.9785 6.47212 29.8471L9.04338 27.2759C9.60055 27.4217 10.1738 27.497 10.7497 27.5H22.2475C22.8243 27.4977 23.3985 27.4228 23.9566 27.2772L26.5265 29.8471C26.7858 30.0976 27.1332 30.2362 27.4937 30.2331C27.8542 30.2299 28.1991 30.0853 28.454 29.8304C28.7089 29.5754 28.8535 29.2306 28.8567 28.8701C28.8598 28.5095 28.7212 28.1622 28.4707 27.9029L26.5512 25.9806ZM8.75875 8.86462C8.93666 7.91892 9.43938 7.06509 10.18 6.45073C10.9207 5.83637 11.8527 5.50008 12.815 5.5H20.1877C21.1496 5.50072 22.0809 5.8373 22.821 6.45161C23.5611 7.06592 24.0634 7.91939 24.2412 8.86462L24.7184 11.4084C23.6918 12.5767 22.4279 13.5127 21.011 14.154C19.594 14.7952 18.0566 15.1268 16.5014 15.1268C14.9461 15.1268 13.4087 14.7952 11.9918 14.154C10.5748 13.5127 9.31093 12.5767 8.28437 11.4084L8.75875 8.86462ZM25.4196 23.2595C25.0335 23.7262 24.5491 24.1018 24.001 24.3594C23.4528 24.6171 22.8545 24.7505 22.2489 24.75H10.7511C10.1451 24.7499 9.54648 24.6162 8.99794 24.3585C8.4494 24.1008 7.96439 23.7254 7.57739 23.259C7.1904 22.7926 6.91094 22.2466 6.75888 21.6599C6.60682 21.0733 6.58591 20.4603 6.69762 19.8646L7.67525 14.6506C10.1442 16.7332 13.27 17.8755 16.5 17.8755C19.73 17.8755 22.8558 16.7332 25.3247 14.6506L26.301 19.8646C26.4137 20.4604 26.3933 21.0737 26.2412 21.6606C26.089 22.2475 25.8089 22.7935 25.421 23.2595H25.4196Z" fill="white" fill-opacity="0.5"/>
</svg>
