<svg width="17" height="17" viewBox="0 0 17 17" fill="none" xmlns="http://www.w3.org/2000/svg">
<path d="M5.592 11.408V12.824H10.92V14.192H5.592V17H3.168V14.192H0.72V12.824H3.168V0.199999H9.768C11.96 0.199999 13.672 0.687999 14.904 1.664C16.136 2.624 16.752 4 16.752 5.792C16.752 7.6 16.136 8.992 14.904 9.968C13.672 10.928 11.96 11.408 9.768 11.408H5.592ZM14.328 5.816C14.328 4.68 13.936 3.808 13.152 3.2C12.368 2.592 11.24 2.288 9.768 2.288H5.592V9.416H9.768C11.224 9.416 12.344 9.104 13.128 8.48C13.928 7.84 14.328 6.952 14.328 5.816Z" fill="white"/>
</svg>
