<svg width="8" height="8" viewBox="0 0 8 8" fill="none" xmlns="http://www.w3.org/2000/svg">
<path fill-rule="evenodd" clip-rule="evenodd" d="M3.13497 7.76687C3.36196 7.76687 3.55828 7.66258 3.70552 7.43558L7.82822 0.97546C7.92025 0.840491 8 0.674847 8 0.527607C8 0.202454 7.71166 0 7.41104 0C7.23313 0 7.05521 0.104294 6.92025 0.312883L3.10429 6.38037L1.07362 3.83436C0.91411 3.6319 0.748466 3.55828 0.552147 3.55828C0.251534 3.55828 0 3.79755 0 4.1227C0 4.27607 0.0613497 4.44172 0.165644 4.57055L2.53374 7.44172C2.72393 7.67485 2.90798 7.76687 3.13497 7.76687Z" fill="white"/>
</svg>
