<svg width="19" height="19" viewBox="0 0 19 19" fill="none" xmlns="http://www.w3.org/2000/svg">
<path d="M16.0312 9.95125V9.5V9.04281L17.1712 8.04531C17.3814 7.86009 17.5193 7.60654 17.5606 7.32948C17.6019 7.05243 17.5439 6.76969 17.3969 6.53125L15.9956 4.15625C15.8915 3.9759 15.7418 3.82611 15.5615 3.7219C15.3812 3.61768 15.1767 3.56271 14.9684 3.5625C14.8394 3.56151 14.711 3.58156 14.5884 3.62187L13.1456 4.10875C12.8965 3.94321 12.6367 3.79445 12.3678 3.66343L12.065 2.16718C12.0107 1.89383 11.862 1.64827 11.6449 1.47351C11.4278 1.29874 11.1561 1.20591 10.8775 1.21125H8.09875C7.8201 1.20591 7.54845 1.29874 7.33135 1.47351C7.11426 1.64827 6.96554 1.89383 6.91125 2.16718L6.60844 3.66343C6.33765 3.79442 6.07582 3.94318 5.82469 4.10875L4.41156 3.59812C4.28764 3.56584 4.15932 3.55381 4.03156 3.5625C3.82332 3.56271 3.61879 3.61768 3.4385 3.7219C3.25821 3.82611 3.10849 3.9759 3.00437 4.15625L1.60312 6.53125C1.46453 6.76933 1.41303 7.0482 1.45745 7.32008C1.50186 7.59196 1.63941 7.83995 1.84656 8.02156L2.96875 9.04875V9.95718L1.84656 10.9547C1.63356 11.1376 1.49224 11.39 1.44768 11.6672C1.40311 11.9443 1.45819 12.2283 1.60312 12.4687L3.00437 14.8437C3.10849 15.0241 3.25821 15.1739 3.4385 15.2781C3.61879 15.3823 3.82332 15.4373 4.03156 15.4375C4.16061 15.4385 4.28896 15.4184 4.41156 15.3781L5.85437 14.8912C6.10347 15.0568 6.36332 15.2055 6.63218 15.3366L6.935 16.8328C6.98929 17.1062 7.13801 17.3517 7.3551 17.5265C7.5722 17.7013 7.84385 17.7941 8.1225 17.7887H10.925C11.2036 17.7941 11.4753 17.7013 11.6924 17.5265C11.9095 17.3517 12.0582 17.1062 12.1125 16.8328L12.4153 15.3366C12.6861 15.2056 12.9479 15.0568 13.1991 14.8912L14.6359 15.3781C14.7585 15.4184 14.8869 15.4385 15.0159 15.4375C15.2242 15.4373 15.4287 15.3823 15.609 15.2781C15.7893 15.1739 15.939 15.0241 16.0431 14.8437L17.3969 12.4687C17.5355 12.2307 17.587 11.9518 17.5425 11.6799C17.4981 11.408 17.3606 11.16 17.1534 10.9784L16.0312 9.95125ZM14.9684 14.25L12.9319 13.5612C12.4551 13.9651 11.9103 14.2807 11.3228 14.4934L10.9012 16.625H8.09875L7.67719 14.5172C7.09437 14.2984 6.55245 13.9833 6.07406 13.585L4.03156 14.25L2.63031 11.875L4.24531 10.45C4.13552 9.83538 4.13552 9.20617 4.24531 8.59156L2.63031 7.125L4.03156 4.75L6.06812 5.43875C6.54487 5.03493 7.08973 4.71927 7.67719 4.50656L8.09875 2.375H10.9012L11.3228 4.48281C11.9056 4.70156 12.4475 5.01668 12.9259 5.415L14.9684 4.75L16.3697 7.125L14.7547 8.55C14.8645 9.16461 14.8645 9.79382 14.7547 10.4084L16.3697 11.875L14.9684 14.25Z" fill="white"/>
<path d="M9.5 13.0625C8.79541 13.0625 8.10663 12.8536 7.52078 12.4621C6.93493 12.0707 6.47832 11.5143 6.20868 10.8633C5.93904 10.2123 5.86849 9.49605 6.00595 8.80499C6.14341 8.11393 6.48271 7.47916 6.98093 6.98093C7.47916 6.48271 8.11393 6.14341 8.80499 6.00595C9.49605 5.86849 10.2123 5.93904 10.8633 6.20868C11.5143 6.47832 12.0707 6.93493 12.4621 7.52078C12.8536 8.10663 13.0625 8.79541 13.0625 9.5C13.0673 9.96916 12.9784 10.4346 12.801 10.8689C12.6237 11.3033 12.3614 11.6979 12.0297 12.0297C11.6979 12.3614 11.3033 12.6237 10.8689 12.801C10.4346 12.9784 9.96916 13.0673 9.5 13.0625ZM9.5 7.125C9.18611 7.11769 8.874 7.17412 8.58255 7.29089C8.29109 7.40766 8.02635 7.58233 7.80434 7.80434C7.58233 8.02635 7.40766 8.29109 7.29089 8.58255C7.17412 8.874 7.11769 9.18611 7.125 9.5C7.11769 9.81389 7.17412 10.126 7.29089 10.4175C7.40766 10.7089 7.58233 10.9736 7.80434 11.1957C8.02635 11.4177 8.29109 11.5923 8.58255 11.7091C8.874 11.8259 9.18611 11.8823 9.5 11.875C9.81389 11.8823 10.126 11.8259 10.4175 11.7091C10.7089 11.5923 10.9736 11.4177 11.1957 11.1957C11.4177 10.9736 11.5923 10.7089 11.7091 10.4175C11.8259 10.126 11.8823 9.81389 11.875 9.5C11.8823 9.18611 11.8259 8.874 11.7091 8.58255C11.5923 8.29109 11.4177 8.02635 11.1957 7.80434C10.9736 7.58233 10.7089 7.40766 10.4175 7.29089C10.126 7.17412 9.81389 7.11769 9.5 7.125Z" fill="white"/>
</svg>
