<svg width="16" height="16" viewBox="0 0 16 16" fill="none" xmlns="http://www.w3.org/2000/svg">
<path d="M13.5 1C13.0671 0.999814 12.6459 1.14013 12.2996 1.39986C11.9533 1.6596 11.7007 2.02471 11.5797 2.44032C11.4587 2.85593 11.4758 3.29959 11.6286 3.70462C11.7814 4.10964 12.0614 4.45414 12.4268 4.68634L11.1217 9.25406C11.0812 9.25148 11.0406 9.25013 11 9.25C10.5698 9.24953 10.151 9.38854 9.80647 9.64619L7.39541 7.63697C7.50956 7.2983 7.53087 6.93523 7.45713 6.58553C7.38339 6.23583 7.21729 5.91228 6.97612 5.64854C6.73494 5.38479 6.4275 5.19049 6.08578 5.08585C5.74405 4.9812 5.38053 4.97003 5.03303 5.05351C4.68552 5.13698 4.36674 5.31205 4.10983 5.56049C3.85292 5.80894 3.66728 6.12169 3.57222 6.4662C3.47715 6.81071 3.47614 7.17441 3.56929 7.51944C3.66243 7.86448 3.84633 8.17825 4.10185 8.42813L2.68647 11.259C2.62449 11.2531 2.56227 11.2501 2.50001 11.25C2.02087 11.2494 1.5574 11.4206 1.19371 11.7325C0.830022 12.0444 0.590229 12.4764 0.517855 12.9501C0.445481 13.4237 0.545325 13.9076 0.799263 14.3139C1.0532 14.7202 1.4444 15.022 1.90185 15.1645C2.35931 15.307 2.85269 15.2808 3.29245 15.0906C3.73221 14.9003 4.08919 14.5588 4.29861 14.1278C4.50802 13.6969 4.55598 13.2051 4.43378 12.7418C4.31158 12.2785 4.02732 11.8744 3.6326 11.6028L4.9701 8.92816C5.295 9.01779 5.63731 9.02365 5.96508 8.9452C6.29286 8.86675 6.59542 8.70654 6.84454 8.47953L9.17891 10.4249C9.02039 10.7742 8.96568 11.1618 9.0213 11.5413C9.07692 11.9209 9.24053 12.2765 9.49262 12.5656C9.7447 12.8548 10.0746 13.0653 10.4431 13.1722C10.8115 13.2791 11.2029 13.2777 11.5706 13.1683C11.9382 13.0589 12.2667 12.8461 12.5168 12.5552C12.7669 12.2643 12.928 11.9076 12.981 11.5276C13.034 11.1477 12.9766 10.7605 12.8157 10.4123C12.6547 10.0641 12.397 9.76949 12.0733 9.56366L13.3783 4.99594C13.4186 4.99838 13.4591 5 13.5 5C14.0304 5 14.5391 4.78929 14.9142 4.41421C15.2893 4.03914 15.5 3.53043 15.5 3C15.5 2.46957 15.2893 1.96086 14.9142 1.58579C14.5391 1.21071 14.0304 1 13.5 1V1ZM2.50001 14.25C2.30222 14.25 2.10888 14.1914 1.94444 14.0815C1.77999 13.9716 1.65181 13.8154 1.57613 13.6327C1.50044 13.45 1.48064 13.2489 1.51922 13.0549C1.55781 12.8609 1.65305 12.6827 1.7929 12.5429C1.93275 12.403 2.11093 12.3078 2.30492 12.2692C2.4989 12.2306 2.69996 12.2504 2.88269 12.3261C3.06542 12.4018 3.22159 12.53 3.33148 12.6944C3.44136 12.8589 3.50001 13.0522 3.50001 13.25C3.49971 13.5151 3.39426 13.7693 3.20678 13.9568C3.01931 14.1442 2.76513 14.2497 2.50001 14.25V14.25ZM5.50001 8C5.30222 8 5.10888 7.94135 4.94444 7.83147C4.77999 7.72159 4.65181 7.56541 4.57613 7.38268C4.50044 7.19996 4.48064 6.99889 4.51922 6.80491C4.55781 6.61093 4.65305 6.43275 4.7929 6.29289C4.93275 6.15304 5.11093 6.0578 5.30492 6.01921C5.4989 5.98063 5.69996 6.00043 5.88269 6.07612C6.06542 6.15181 6.22159 6.27998 6.33148 6.44443C6.44136 6.60888 6.50001 6.80222 6.50001 7C6.49971 7.26513 6.39426 7.51931 6.20678 7.70678C6.01931 7.89425 5.76513 7.9997 5.50001 8ZM11 12.25C10.8022 12.25 10.6089 12.1914 10.4444 12.0815C10.28 11.9716 10.1518 11.8154 10.0761 11.6327C10.0004 11.45 9.98064 11.2489 10.0192 11.0549C10.0578 10.8609 10.153 10.6827 10.2929 10.5429C10.4328 10.403 10.6109 10.3078 10.8049 10.2692C10.9989 10.2306 11.2 10.2504 11.3827 10.3261C11.5654 10.4018 11.7216 10.53 11.8315 10.6944C11.9414 10.8589 12 11.0522 12 11.25C11.9997 11.5151 11.8943 11.7693 11.7068 11.9568C11.5193 12.1442 11.2651 12.2497 11 12.25V12.25ZM13.5 4C13.3022 4 13.1089 3.94135 12.9444 3.83147C12.78 3.72159 12.6518 3.56541 12.5761 3.38268C12.5004 3.19996 12.4806 2.99889 12.5192 2.80491C12.5578 2.61093 12.653 2.43275 12.7929 2.29289C12.9328 2.15304 13.1109 2.0578 13.3049 2.01921C13.4989 1.98063 13.7 2.00043 13.8827 2.07612C14.0654 2.15181 14.2216 2.27998 14.3315 2.44443C14.4414 2.60888 14.5 2.80222 14.5 3C14.4997 3.26513 14.3943 3.51931 14.2068 3.70678C14.0193 3.89425 13.7651 3.9997 13.5 4Z" fill="black"/>
</svg>
