<svg width="19" height="16" viewBox="0 0 19 16" fill="none" xmlns="http://www.w3.org/2000/svg">
<g clip-path="url(#clip0_708_2)">
<path d="M18.2701 7.96428L16.1629 0.696424C16.151 0.613091 16.1153 0.538686 16.0558 0.47321C15.9962 0.407734 15.9308 0.357139 15.8593 0.321424C15.7879 0.28571 15.7105 0.267853 15.6272 0.267853H2.48434C2.40101 0.267853 2.32065 0.28571 2.24327 0.321424C2.16589 0.357139 2.10041 0.407734 2.04684 0.47321C1.99327 0.538686 1.95458 0.613091 1.93077 0.696424L0.0200544 7.60714C0.00814965 7.66666 0.00517346 7.72916 0.0111258 7.79464C0.0170782 7.86012 0.0319592 7.92262 0.0557687 7.98214C0.0200544 8.10119 0.00219727 8.20833 0.00219727 8.30357V14.5893C0.00219727 14.8988 0.112316 15.1667 0.332554 15.3929C0.552793 15.619 0.823626 15.7321 1.14505 15.7321H17.1451C17.4665 15.7321 17.7373 15.619 17.9576 15.3929C18.1778 15.1667 18.2879 14.8988 18.2879 14.5893V8.21428C18.2879 8.11904 18.282 8.03571 18.2701 7.96428ZM2.93077 1.41071H15.1808L16.8415 7.16071H11.5201C11.5201 7.43452 11.4814 7.69047 11.404 7.92857C11.3266 8.16666 11.2165 8.38095 11.0736 8.57142C10.9308 8.7619 10.7641 8.92559 10.5736 9.0625C10.3832 9.1994 10.1659 9.30357 9.92184 9.375C9.67779 9.44642 9.41886 9.48214 9.14505 9.48214C8.79982 9.48214 8.48434 9.42559 8.19863 9.3125C7.91291 9.1994 7.66589 9.04166 7.45755 8.83928C7.24922 8.6369 7.08553 8.39285 6.96648 8.10714C6.84744 7.82142 6.78791 7.50595 6.78791 7.16071H1.32363L2.93077 1.41071ZM17.1451 14.5893H1.14505V8.30357H5.84148C6.09148 9.02976 6.50815 9.59821 7.09148 10.0089C7.67482 10.4196 8.35934 10.625 9.14505 10.625C9.66886 10.625 10.154 10.5327 10.6004 10.3482C11.0468 10.1637 11.4278 9.89583 11.7433 9.54464C12.0587 9.19345 12.2998 8.77976 12.4665 8.30357H17.1451V14.5893Z" fill="black"/>
</g>
<defs>
<clipPath id="clip0_708_2">
<rect width="18.29" height="16" fill="white"/>
</clipPath>
</defs>
</svg>
